<svg width="235" height="63" viewBox="0 0 235 63" fill="none" xmlns="http://www.w3.org/2000/svg">
<path d="M167.6 48.312C167.49 48.1398 167.338 47.998 167.159 47.8997C166.98 47.8014 166.779 47.7497 166.574 47.7494L146.032 47.7249L164.737 27.0341C165.863 25.7883 166.604 24.2422 166.87 22.5833C167.136 20.9245 166.915 19.2241 166.235 17.6882C165.555 16.1523 164.444 14.847 163.037 13.9304C161.631 13.0137 159.989 12.5252 158.311 12.524H124.838C124.747 12.524 124.658 12.5605 124.594 12.6255C124.529 12.6905 124.492 12.7787 124.492 12.8706V18.8026L124.06 18.3215C123.329 17.5103 122.526 16.7667 121.662 16.0996C119.332 14.328 116.701 12.9949 113.895 12.1653C107.678 10.366 101.078 10.366 94.8601 12.1653C92.0549 12.9958 89.4235 14.3288 87.0936 16.0996C86.2304 16.7667 85.4289 17.5104 84.699 18.3215L84.2632 18.8026V12.8461C84.2632 12.7549 84.2273 12.6674 84.1633 12.6025C84.0992 12.5376 84.0122 12.5006 83.9211 12.4996H76.8918C76.676 12.4996 71.8092 12.3691 69.4471 18.1422C67.0036 24.0946 57.7995 43.97 57.7059 44.1698L57.4656 44.6916L57.2497 44.1576C57.1642 43.9415 48.5426 22.5046 46.9665 18.1299C45.4352 13.8858 41.0205 12.4996 39.6725 12.4996H23.9238V1.34896C23.9228 1.02298 23.7944 0.710349 23.5661 0.477953C23.3377 0.245556 23.0276 0.111859 22.702 0.105469H10.077C9.91485 0.105446 9.75429 0.137745 9.60472 0.200482C9.45514 0.26322 9.31954 0.35514 9.20582 0.470884C9.09209 0.586627 9.00252 0.723878 8.94234 0.874633C8.88215 1.02539 8.85254 1.18663 8.85524 1.34896V12.5037H1.28431C0.951335 12.4969 0.628718 12.6197 0.384271 12.8461C0.196652 13.0255 0.0698406 13.2592 0.0216339 13.5143C-0.0265728 13.7695 0.00624445 14.0334 0.11548 14.269L5.20214 25.2769C5.34318 25.5809 5.56793 25.8382 5.85 26.0188C6.13206 26.1993 6.45973 26.2956 6.79452 26.2962H8.83081V45.1646C8.83081 50.4321 10.5291 54.6966 13.8849 57.8318C17.2407 60.9671 21.9771 62.5653 27.9557 62.5653C29.9881 62.5717 32.0155 62.3613 34.0034 61.9374C35.7695 61.5668 37.5063 61.0681 39.2001 60.4452C40.0146 60.1394 40.7843 59.8174 41.4766 59.4912C41.7985 59.3446 42.0612 59.0931 42.2219 58.7777C42.3254 58.5672 42.3792 58.3356 42.3792 58.1009C42.3792 57.8663 42.3254 57.6347 42.2219 57.4241L37.8561 48.308C37.7753 48.1391 37.6347 48.0063 37.4616 47.9355C37.2885 47.8647 37.0952 47.8608 36.9194 47.9247C35.1916 48.5461 33.3714 48.8714 31.5355 48.8869C30.6269 48.8887 29.7202 48.8055 28.8272 48.6382C27.9399 48.485 27.102 48.1216 26.3836 47.5782C25.6409 46.9949 25.0383 46.2524 24.6202 45.4051C24.0957 44.2559 23.8527 42.9979 23.9116 41.7358V26.2799H33.7428C33.9098 26.2799 33.9098 26.2799 34.5573 27.6661C34.9401 28.4815 35.4818 29.6026 36.1375 30.9888C37.3145 33.4758 38.9883 36.9902 41.0572 41.426C44.6573 49.05 48.5263 57.2488 50.0046 60.433C50.1034 60.6445 50.2605 60.8234 50.4575 60.9483C50.6546 61.0733 50.8832 61.1392 51.1164 61.1383H63.493C63.7282 61.1387 63.9588 61.0723 64.1578 60.9467C64.3567 60.8211 64.516 60.6416 64.6171 60.4289L80.3494 26.9974L80.1621 28.5345C80.0464 29.4881 79.9893 30.4481 79.9911 31.4088V59.8867C79.9911 60.211 80.1198 60.5222 80.3489 60.7515C80.578 60.9809 80.8888 61.1098 81.2128 61.1098H93.3247C93.4886 61.1125 93.6513 61.0822 93.8033 61.0207C93.9552 60.9592 94.0933 60.8677 94.2092 60.7517C94.3251 60.6357 94.4164 60.4975 94.4779 60.3454C94.5393 60.1933 94.5696 60.0303 94.5668 59.8663V34.9965C94.5668 28.139 97.7149 24.6613 103.934 24.6613C106.899 24.6613 109.208 25.5175 110.8 27.2135C112.393 28.9095 113.191 31.5188 113.191 34.9965V59.8867C113.191 60.049 113.223 60.2097 113.286 60.3595C113.348 60.5092 113.44 60.645 113.556 60.7588C113.671 60.8727 113.809 60.9623 113.959 61.0226C114.11 61.0828 114.271 61.1125 114.433 61.1098H161.186C161.514 61.1092 161.835 61.0149 162.112 60.838C162.388 60.661 162.608 60.4088 162.746 60.1109L167.678 49.4495C167.763 49.2641 167.801 49.0603 167.787 48.8567C167.774 48.653 167.71 48.4559 167.6 48.2835V48.312ZM127.775 26.2676H148.028L127.775 47.1582V26.2676Z" fill="white"/>
<path d="M233.455 22.9576H211.752V1.2231C211.746 0.900677 211.615 0.593202 211.387 0.365169C211.16 0.137137 210.852 0.00626247 210.53 0H197.905C197.583 0.00626247 197.276 0.137137 197.048 0.365169C196.821 0.593202 196.69 0.900677 196.684 1.2231V22.9576H180.792C180.555 22.9543 180.323 23.0199 180.122 23.1466C179.922 23.2733 179.763 23.4555 179.664 23.6711L173.82 36.3099C173.728 36.4984 173.685 36.7075 173.697 36.9172C173.709 37.1268 173.775 37.3299 173.888 37.5068C174 37.6838 174.157 37.8286 174.342 37.9275C174.527 38.0263 174.734 38.0758 174.944 38.0711H196.647V59.8016C196.647 60.126 196.776 60.4371 197.005 60.6664C197.234 60.8958 197.545 61.0247 197.869 61.0247H210.494C210.818 61.0247 211.129 60.8958 211.358 60.6664C211.587 60.4371 211.715 60.126 211.715 59.8016V38.0711H233.418C233.742 38.0711 234.053 37.9423 234.282 37.7129C234.511 37.4835 234.64 37.1724 234.64 36.848V24.1807C234.64 23.8626 234.517 23.557 234.295 23.3286C234.074 23.1003 233.773 22.9672 233.455 22.9576Z" fill="url(#paint0_linear_997_34488)"/>
<defs>
<linearGradient id="paint0_linear_997_34488" x1="218.928" y1="14.3307" x2="185.216" y2="60.4312" gradientUnits="userSpaceOnUse">
<stop offset="0.2" stop-color="#00F3FF"/>
<stop offset="0.26" stop-color="#00E8FF"/>
<stop offset="1" stop-color="#006AFF"/>
</linearGradient>
</defs>
</svg>
